<svg width="400" height="400" viewBox="0 0 400 400" fill="none" xmlns="http://www.w3.org/2000/svg">
<path d="M147 234L176 166H155L140.5 204L125 166H113L97.5 204L83 166H62L91 234H103L119 195L135 234H147Z" fill="#00C375"/>
<path d="M333.946 134.004C342.581 134.034 347.337 134.272 351.08 136.18C354.843 138.097 357.903 141.157 359.82 144.92C362 149.198 362 154.799 362 166L361.996 237.946C361.966 246.581 361.728 251.337 359.82 255.08L359.637 255.431C357.71 259.033 354.726 261.963 351.08 263.82L350.675 264.019C346.992 265.745 342.272 265.967 333.946 265.996L330 266H70C59.149 266 53.5538 266 49.3252 264.019L48.9199 263.82C45.2744 261.963 42.2895 259.033 40.3633 255.431L40.1797 255.08C38.2723 251.337 38.0337 246.581 38.0039 237.946L38 166C38 154.799 37.9998 149.198 40.1797 144.92C42.0971 141.157 45.1568 138.097 48.9199 136.18C53.1982 134 58.799 134 70 134L333.946 134.004ZM70 146C64.2015 146 60.5739 146.009 57.8408 146.232C55.2483 146.444 54.5337 146.788 54.3682 146.872C52.8629 147.639 51.6391 148.863 50.8721 150.368C50.7877 150.534 50.4443 151.248 50.2324 153.841C50.0091 156.574 50 160.201 50 166V234C50 239.799 50.0091 243.426 50.2324 246.159C50.4443 248.752 50.7877 249.466 50.8721 249.632C51.6391 251.137 52.8629 252.361 54.3682 253.128C54.5337 253.212 55.2483 253.556 57.8408 253.768C60.5739 253.991 64.2015 254 70 254H330C335.799 254 339.426 253.991 342.159 253.768C344.752 253.556 345.466 253.212 345.632 253.128C347.137 252.361 348.361 251.137 349.128 249.632C349.212 249.466 349.556 248.752 349.768 246.159C349.991 243.426 350 239.799 350 234V166C350 160.201 349.991 156.574 349.768 153.841C349.556 151.248 349.212 150.534 349.128 150.368C348.361 148.863 347.137 147.639 345.632 146.872C345.466 146.788 344.752 146.444 342.159 146.232C339.426 146.009 335.799 146 330 146H70ZM223 192L244 166H262V234H242V195L223.5 217.5H222.5L204 195V234H184V166H202L223 192ZM315.652 199.643H335.536L305.711 232.45L275.886 199.643H295.769V164.847H315.652V199.643Z" fill="#ffffff"/>
</svg>
